<?xml version="1.0" encoding="UTF-8" standalone="no"?>
<!-- Created with Inkscape (http://www.inkscape.org/) -->

<svg
   xmlns:dc="http://purl.org/dc/elements/1.1/"
   xmlns:cc="http://creativecommons.org/ns#"
   xmlns:rdf="http://www.w3.org/1999/02/22-rdf-syntax-ns#"
   xmlns:svg="http://www.w3.org/2000/svg"
   xmlns="http://www.w3.org/2000/svg"
   version="1.1"
   width="1271.7007"
   height="180.45068"
   viewBox="0 0 14.130008 2.0050077"
   id="svg2">
  <title
     id="title4166">PLATFORM-CNC </title>
  <metadata
     id="metadata3249">
    <rdf:RDF>
      <cc:Work
         rdf:about="">
        <dc:format>image/svg+xml</dc:format>
        <dc:type
           rdf:resource="http://purl.org/dc/dcmitype/StillImage" />
        <dc:title>PLATFORM-CNC </dc:title>
      </cc:Work>
    </rdf:RDF>
  </metadata>
  <defs
     id="defs3247" />
  <g
     transform="translate(0.06500384,0.06500385)"
     id="f9942fa8-b3a1-4bd0-867c-3c348adbc8ec" />
  <g
     transform="translate(0.06500384,0.06500385)"
     id="5c304588-11ca-4ec5-8ccc-1ecfda782971">
    <g
       id="g4100">
      <g
         id="g4085">
        <path
           d="m 9.688758,1.857525 0,0.017687 0.78125,0 0,-0.017608 -0.107066,-0.104167 C 10.275851,1.668705 10.24427,1.64489 10.193671,1.625792 10.114702,1.595986 10.017573,1.600036 9.942481,1.636266 L 9.891883,1.660678 9.688758,1.857525"
           id="path3121"
           style="fill:#000000;fill-opacity:1;stroke:#000000;stroke-width:0.01;stroke-linecap:round;stroke-linejoin:round;stroke-opacity:1" />
        <path
           d="m 10.337925,1.588754 0.282164,0.286458 0.443669,0 0,-0.454086 -0.286459,-0.282971 -0.04687,-0.02423 c -0.06731,-0.034792 -0.192204,-0.034308 -0.265185,0.00103 -0.06536,0.031647 -0.11998,0.086051 -0.152284,0.151687 -0.03586,0.072869 -0.03593,0.195776 -1.35e-4,0.27003 l 0.0251,0.052084"
           id="path3129"
           style="fill:#000000;fill-opacity:1;stroke:#000000;stroke-width:0.01;stroke-linecap:round;stroke-linejoin:round;stroke-opacity:1" />
        <path
           d="m 9.199174,1.861323 0.013889,0.013889 0.324966,0 L 9.798133,1.612428 9.85804,1.572981 C 9.915237,1.535319 9.961455,1.5199 10.062559,1.50475 l 0.04568,-0.00684 -0.893346,-0.893527 -0.015716,0 0,1.256944"
           id="path3137"
           style="fill:#000000;fill-opacity:1;stroke:#000000;stroke-width:0.01;stroke-linecap:round;stroke-linejoin:round;stroke-opacity:1" />
        <path
           d="m 10.837868,1.046704 0.220681,0.226309 0.0055,-0.788246 -0.09198,0.091551 c -0.125096,0.124517 -0.16004,0.183846 -0.166369,0.282466 -0.0036,0.055923 4.9e-5,0.09112 0.01365,0.13208 l 0.01855,0.05584"
           id="path3149"
           style="fill:#000000;fill-opacity:1;stroke:#000000;stroke-width:0.01;stroke-linecap:round;stroke-linejoin:round;stroke-opacity:1" />
        <path
           d="m 9.194098,0.448178 0.978952,0.979117 0.0079,0 c 0.0043,0 0.0079,-0.022586 0.0079,-0.050192 0,-0.071371 0.02462,-0.145086 0.07027,-0.210432 0.07246,-0.103725 0.175557,-0.16275 0.307465,-0.176037 L 10.626516,0.984587 9.641751,1.62e-4 9.194098,0.448178"
           id="path3161"
           style="fill:#000000;fill-opacity:1;stroke:#000000;stroke-width:0.01;stroke-linecap:round;stroke-linejoin:round;stroke-opacity:1" />
        <path
           d="m 9.803341,0.015747 0.890625,0.890874 0.01237,-0.073233 c 0.0068,-0.040279 0.02434,-0.099385 0.03897,-0.131347 l 0.0266,-0.058114 0.29185,-0.296214 0,-0.347501 -1.260417,0 0,0.015535"
           id="path3165"
           style="fill:#000000;fill-opacity:1;stroke:#000000;stroke-width:0.01;stroke-linecap:round;stroke-linejoin:round;stroke-opacity:1" />
      </g>
      <g
         id="g4069">
        <path
           d="m 3.329383,1.746926 -0.0062,0.128286 0.761014,0 L 4.098349,1.81792 4.176601,1.526254 4.171257,1.520906 3.329383,1.746926"
           id="path3123"
           style="fill:#000000;fill-opacity:1;stroke:#000000;stroke-width:0.01;stroke-linecap:round;stroke-linejoin:round;stroke-opacity:1" />
        <path
           d="m 4.188758,1.854983 0,0.020229 0.916666,0 0,-0.015799 -0.464341,-0.463997 -0.350892,0.09364 -0.0047,0.00595 -0.096733,0.359979"
           id="path3125"
           style="fill:#000000;fill-opacity:1;stroke:#000000;stroke-width:0.01;stroke-linecap:round;stroke-linejoin:round;stroke-opacity:1" />
        <path
           d="m 4.709567,1.328144 0.463392,0.463735 0.015799,0 0,-0.916667 -0.021723,0 L 4.80544,0.971865 4.709567,1.328144"
           id="path3145"
           style="fill:#000000;fill-opacity:1;stroke:#000000;stroke-width:0.01;stroke-linecap:round;stroke-linejoin:round;stroke-opacity:1" />
        <path
           d="m 3.324174,0.599269 0,1.04818 0.036459,-0.010746 0.75,-0.1995 L 4.147286,1.422087 3.324174,0.599269"
           id="path3151"
           style="fill:#000000;fill-opacity:1;stroke:#000000;stroke-width:0.01;stroke-linecap:round;stroke-linejoin:round;stroke-opacity:1" />
        <path
           d="M 4.844007,0.828337 4.833735,0.863068 5.100216,0.791455 5.189012,0.768508 5.183549,0.00542 5.124191,0.002312 C 5.064832,-7.96e-4 5.064832,-7.96e-4 5.054498,0.038771 l -0.010335,0.039566 -0.200156,0.75"
           id="path3153"
           style="fill:#000000;fill-opacity:1;stroke:#000000;stroke-width:0.01;stroke-linecap:round;stroke-linejoin:round;stroke-opacity:1" />
        <path
           d="M 3.319039,0.448116 4.266628,1.395877 4.298133,1.3862 4.608514,1.302678 4.617796,1.293396 4.711479,0.944893 3.766955,1.99e-4 3.319039,0.448116"
           id="path3155"
           style="fill:#000000;fill-opacity:1;stroke:#000000;stroke-width:0.01;stroke-linecap:round;stroke-linejoin:round;stroke-opacity:1" />
        <path
           d="M 3.917924,0.015739 4.735633,0.833741 4.751559,0.797087 4.959591,0.01865 l 0,-0.018438 -1.041667,0 0,0.015527"
           id="path3169"
           style="fill:#000000;fill-opacity:1;stroke:#000000;stroke-width:0.01;stroke-linecap:round;stroke-linejoin:round;stroke-opacity:1" />
      </g>
      <g
         id="g4063">
        <path
           d="m 0.376258,1.861323 0.013889,0.013889 0.324822,0 0.473756,-0.474092 -0.796943,-0.796741 -0.015524,0 0,1.256944"
           id="path3133"
           style="fill:#000000;fill-opacity:1;stroke:#000000;stroke-width:0.01;stroke-linecap:round;stroke-linejoin:round;stroke-opacity:1" />
        <path
           d="m 0.865841,1.859793 0,0.015419 1.375,0 0,-1.390419 -0.394599,0.394188 0.030291,0.038245 c 0.016659,0.021035 0.043335,0.063546 0.059278,0.094469 0.026542,0.051481 0.028988,0.065894 0.028988,0.170809 0,0.102514 -0.00294,0.120857 -0.027917,0.174146 C 1.824143,1.597187 1.517102,1.674489 1.308101,1.514955 1.282467,1.495388 1.257971,1.479379 1.253666,1.479379 l -0.00783,0 -0.379997,0.380414"
           id="path3139"
           style="fill:#000000;fill-opacity:1;stroke:#000000;stroke-width:0.01;stroke-linecap:round;stroke-linejoin:round;stroke-opacity:1" />
        <path
           d="M 1.458365,1.486456 C 1.481843,1.495236 1.525652,1.499219 1.574573,1.497022 1.637053,1.494216 1.664337,1.487379 1.708103,1.463558 1.84448,1.389333 1.906007,1.237401 1.860409,1.087465 L 1.841793,1.026254 0.819238,0 0.371121,0.448117 1.350216,1.428228 1.385448,1.450296 c 0.019378,0.012138 0.05219,0.02841 0.072917,0.03616"
           id="path3159"
           style="fill:#000000;fill-opacity:1;stroke:#000000;stroke-width:0.01;stroke-linecap:round;stroke-linejoin:round;stroke-opacity:1" />
        <path
           d="m 0.980424,0.015737 0.79674,0.796941 0.463677,-0.463334 0,-0.349132 -1.260417,0 0,0.015525"
           id="path3171"
           style="fill:#000000;fill-opacity:1;stroke:#000000;stroke-width:0.01;stroke-linecap:round;stroke-linejoin:round;stroke-opacity:1" />
      </g>
      <g
         id="g4093">
        <path
           d="m 12.636674,1.859376 0,0.015836 0.770834,0 0,-0.015836 -0.385417,-0.384994 -0.385417,0.384994"
           id="path3131"
           style="fill:#000000;fill-opacity:1;stroke:#000000;stroke-width:0.01;stroke-linecap:round;stroke-linejoin:round;stroke-opacity:1" />
        <path
           d="m 12.147091,0.599272 0,1.27594 0.328295,0 0.473756,-0.474092 -0.802051,-0.801848"
           id="path3141"
           style="fill:#000000;fill-opacity:1;stroke:#000000;stroke-width:0.01;stroke-linecap:round;stroke-linejoin:round;stroke-opacity:1" />
        <path
           d="m 13.584591,1.861323 0.01432,0.014316 0.407559,-0.00564 0.0054,-1.385377 -0.427234,0.426853 0,0.949843"
           id="path3143"
           style="fill:#000000;fill-opacity:1;stroke:#000000;stroke-width:0.01;stroke-linecap:round;stroke-linejoin:round;stroke-opacity:1" />
        <path
           d="m 12.142004,0.448189 1.343629,1.343757 0.0054,-0.890692 -0.901352,-0.901088 -0.44766,0.448023"
           id="path3163"
           style="fill:#000000;fill-opacity:1;stroke:#000000;stroke-width:0.01;stroke-linecap:round;stroke-linejoin:round;stroke-opacity:1" />
        <path
           d="M 12.740841,0.015737 13.537582,0.81268 14.012058,0.338754 14.006466,0.00542 12.740841,5.1e-5 l 0,0.015686"
           id="path3173"
           style="fill:#000000;fill-opacity:1;stroke:#000000;stroke-width:0.01;stroke-linecap:round;stroke-linejoin:round;stroke-opacity:1" />
      </g>
      <g
         id="g4078">
        <path
           d="m 6.751258,1.859778 0,0.015434 1.307101,0 -0.426702,-0.427083 -0.469136,0 -0.411263,0.411649"
           id="path3127"
           style="fill:#000000;fill-opacity:1;stroke:#000000;stroke-width:0.01;stroke-linecap:round;stroke-linejoin:round;stroke-opacity:1" />
        <path
           d="m 6.261674,0.604379 0,1.270833 0.338716,0 0.463368,-0.463712 0,-0.020766 -0.78656,-0.786355 -0.015524,0"
           id="path3135"
           style="fill:#000000;fill-opacity:1;stroke:#000000;stroke-width:0.01;stroke-linecap:round;stroke-linejoin:round;stroke-opacity:1" />
        <path
           d="m 7.709591,1.38023 0.411458,0.411848 0.00537,-1.307454 -0.416825,0.416434 0,0.479172"
           id="path3147"
           style="fill:#000000;fill-opacity:1;stroke:#000000;stroke-width:0.01;stroke-linecap:round;stroke-linejoin:round;stroke-opacity:1" />
        <path
           d="m 6.256602,0.448175 0.906024,0.906204 0.442798,0 0,-0.453215 L 6.704247,1.66e-4 6.256602,0.448175"
           id="path3157"
           style="fill:#000000;fill-opacity:1;stroke:#000000;stroke-width:0.01;stroke-linecap:round;stroke-linejoin:round;stroke-opacity:1" />
        <path
           d="m 6.855424,0.015737 0.796774,0.796975 0.010348,0 0.463712,-0.463368 0,-0.349132 -1.270834,0 0,0.015525"
           id="path3175"
           style="fill:#000000;fill-opacity:1;stroke:#000000;stroke-width:0.01;stroke-linecap:round;stroke-linejoin:round;stroke-opacity:1" />
      </g>
      <g
         id="g4032">
        <path
           d="m 271.96875,150.375 c -2.42055,0 -4.36532,0.77361 -5.84375,2.34375 -1.47852,1.57005 -2.21875,3.65944 -2.21875,6.25 l 0,7.34375 26.1875,0 0,-5.9375 -9.96875,0 0,-1.03125 c 0,-2.81304 -0.71049,-5.00408 -2.15625,-6.59375 -1.44576,-1.58976 -3.44868,-2.375 -6,-2.375 z m 0.0625,6.09375 c 1.0467,0 1.82839,0.33416 2.3125,0.96875 0.48411,0.63459 0.7239,1.60289 0.75,2.9375 l -6.15625,0 c 0.0262,-1.37385 0.25426,-2.35378 0.71875,-2.96875 0.46449,-0.61497 1.24982,-0.9375 2.375,-0.9375 z"
           transform="scale(0.01111111,0.01111111)"
           id="path3177"
           style="fill:#000000;fill-opacity:1;stroke:#000000;stroke-width:0.89999992;stroke-linecap:round;stroke-linejoin:round;stroke-opacity:1" />
        <path
           d="m 2.932202,1.620804 0,-0.066074 0.223735,0 0,-0.052335 0.067382,0 0,0.118409 -0.291117,0"
           id="path3181"
           style="fill:#000000;fill-opacity:1;stroke:#000000;stroke-width:0.01;stroke-linecap:round;stroke-linejoin:round;stroke-opacity:1" />
        <path
           d="m 290.09375,112.875 -26.1875,6.9375 0,6.65625 26.1875,6.96875 0,-6.0625 -4.375,-1.0625 0,-6.28125 4.375,-1 0,-6.15625 z M 281,121.1875 l 0,4.0625 c -3.79431,-0.8505 -7.50079,-1.52903 -11.125,-2 l 0,-0.0625 c 3.51954,-0.44487 7.22602,-1.11026 11.125,-2 z"
           transform="scale(0.01111111,0.01111111)"
           id="path3183"
           style="fill:#000000;fill-opacity:1;stroke:#000000;stroke-width:0.89999992;stroke-linecap:round;stroke-linejoin:round;stroke-opacity:1" />
        <path
           d="m 3.217867,1.220655 -0.067818,0 C 3.162261,1.19972 3.168367,1.18213 3.168367,1.167883 c 0,-0.00829 -0.00229,-0.014829 -0.00687,-0.019626 -0.00458,-0.0048 -0.010649,-0.0072 -0.018209,-0.0072 -0.00582,0 -0.011266,0.00193 -0.016355,0.00578 C 3.121846,1.150692 3.115668,1.157343 3.108399,1.166792 3.090954,1.189617 3.074708,1.206153 3.059661,1.216402 3.044615,1.226651 3.02786,1.231776 3.009397,1.231776 2.984247,1.231776 2.963749,1.223853 2.947903,1.208007 2.932057,1.192161 2.924134,1.171663 2.924134,1.146512 c 0,-0.018608 0.004,-0.037071 0.011993,-0.055388 l 0.065202,0 C 2.990571,1.11075 2.985192,1.126668 2.985192,1.13888 c 0,0.00814 0.002,0.014574 0.006,0.019299 0.004,0.00472 0.00949,0.00709 0.016464,0.00709 0.012211,0 0.02595,-0.010976 0.041214,-0.032928 C 3.05788,1.119254 3.070565,1.105989 3.086919,1.092541 3.103274,1.079094 3.12221,1.07237 3.143725,1.07237 c 0.025151,0 0.045976,0.0088 0.062476,0.026386 0.0165,0.017591 0.02475,0.039906 0.02475,0.066946 0,0.018463 -0.00436,0.03678 -0.013084,0.054953"
           id="path3187"
           style="fill:#000000;fill-opacity:1;stroke:#000000;stroke-width:0.01;stroke-linecap:round;stroke-linejoin:round;stroke-opacity:1" />
        <path
           d="m 2.932202,1.003898 0,-0.083519 C 2.995005,0.908458 3.049012,0.899081 3.094225,0.892249 L 3.049085,0.885052 C 3.031495,0.882145 3.01434,0.879019 2.997622,0.875676 l -0.06542,-0.012866 0,-0.085264 0.291117,-0.033145 0,0.065419 -0.200184,0.017663 0.200184,0.040778 0,0.044704 -0.20062,0.042741 0.20062,0.017009 0,0.062584 -0.291117,-0.031401"
           id="path3189"
           style="fill:#000000;fill-opacity:1;stroke:#000000;stroke-width:0.01;stroke-linecap:round;stroke-linejoin:round;stroke-opacity:1" />
        <path
           d="m 290.09375,43.96875 -26.1875,6.96875 0,6.65625 26.1875,6.9375 0,-6.0625 -4.375,-1.03125 0,-6.28125 4.375,-1 0,-6.1875 z M 281,52.28125 l 0,4.0625 c -3.79431,-0.85041 -7.50079,-1.49778 -11.125,-1.96875 l 0,-0.0625 c 3.51954,-0.44478 7.22602,-1.1416 11.125,-2.03125 z"
           transform="scale(0.01111111,0.01111111)"
           id="path3191"
           style="fill:#000000;fill-opacity:1;stroke:#000000;stroke-width:0.89999992;stroke-linecap:round;stroke-linejoin:round;stroke-opacity:1" />
      </g>
      <g
         id="g4026">
        <path
           d="M 0,1.823961 0,1.740442 C 0.062803,1.728521 0.11681,1.719144 0.162022,1.712312 L 0.116883,1.705116 C 0.099292,1.702208 0.082138,1.699082 0.06542,1.695739 L 0,1.682873 0,1.59761 0.291117,1.564464 l 0,0.065419 -0.200184,0.017663 0.200184,0.040779 0,0.044703 -0.20062,0.042741 0.20062,0.017009 0,0.062584 L 0,1.823961"
           id="path3195"
           style="fill:#000000;fill-opacity:1;stroke:#000000;stroke-width:0.01;stroke-linecap:round;stroke-linejoin:round;stroke-opacity:1" />
        <path
           d="m 0,1.509947 0,-0.066073 0.291117,0 0,0.066073 -0.291117,0"
           id="path3197"
           style="fill:#000000;fill-opacity:1;stroke:#000000;stroke-width:0.01;stroke-linecap:round;stroke-linejoin:round;stroke-opacity:1" />
        <path
           d="m 0,1.379326 0,-0.066073 0.223735,0 0,-0.052336 0.067382,0 0,0.118409 -0.291117,0"
           id="path3199"
           style="fill:#000000;fill-opacity:1;stroke:#000000;stroke-width:0.01;stroke-linecap:round;stroke-linejoin:round;stroke-opacity:1" />
        <path
           d="m 0,1.216214 0,-0.066074 0.223735,0 0,-0.052336 0.067382,0 0,0.11841 -0.291117,0"
           id="path3201"
           style="fill:#000000;fill-opacity:1;stroke:#000000;stroke-width:0.01;stroke-linecap:round;stroke-linejoin:round;stroke-opacity:1" />
      </g>
      <g
         id="g4040">
        <path
           d="m 5.872037,1.816489 0,-0.066074 0.223735,0 0,-0.052336 0.067382,0 0,0.11841 -0.291117,0"
           id="path3203"
           style="fill:#000000;fill-opacity:1;stroke:#000000;stroke-width:0.01;stroke-linecap:round;stroke-linejoin:round;stroke-opacity:1" />
        <path
           d="m 554.6875,130.46875 -26.21875,6.9375 0,6.6875 26.21875,6.9375 0,-6.0625 -4.375,-1.03125 0,-6.28125 4.375,-1 0,-6.1875 z m -9.09375,8.3125 0,4.0625 c -3.7944,-0.85041 -7.50079,-1.49778 -11.125,-1.96875 l 0,-0.0937 c 3.51954,-0.44487 7.22593,-1.11026 11.125,-2 z"
           transform="scale(0.01111111,0.01111111)"
           id="path3205"
           style="fill:#000000;fill-opacity:1;stroke:#000000;stroke-width:0.89999992;stroke-linecap:round;stroke-linejoin:round;stroke-opacity:1" />
        <path
           d="m 6.157702,1.416339 -0.067818,0 C 6.102095,1.395405 6.108201,1.377815 6.108201,1.363568 c 0,-0.00829 -0.00229,-0.014829 -0.00687,-0.019626 -0.00458,-0.0048 -0.010649,-0.0072 -0.018208,-0.0072 -0.00582,0 -0.011267,0.00193 -0.016355,0.00578 C 6.061681,1.346377 6.055502,1.353028 6.048233,1.362477 6.030788,1.385301 6.014542,1.401838 5.999496,1.412087 5.984449,1.422336 5.967695,1.427461 5.949232,1.427461 c -0.02515,0 -0.045648,-0.00792 -0.061494,-0.023769 -0.015847,-0.015846 -0.02377,-0.036345 -0.02377,-0.061495 0,-0.018608 0.004,-0.037071 0.011994,-0.055388 l 0.065201,0 C 5.930406,1.306435 5.925027,1.322353 5.925027,1.334565 c 0,0.00814 0.002,0.014574 0.006,0.019299 0.004,0.00473 0.00949,0.00709 0.016464,0.00709 0.012212,0 0.02595,-0.010976 0.041215,-0.032928 0.00901,-0.013087 0.021693,-0.026352 0.038048,-0.0398 0.016355,-0.013447 0.03529,-0.020171 0.056806,-0.020171 0.02515,0 0.045975,0.0088 0.062476,0.026386 0.0165,0.017591 0.02475,0.039906 0.02475,0.066946 0,0.018463 -0.00436,0.03678 -0.013084,0.054952"
           id="path3209"
           style="fill:#000000;fill-opacity:1;stroke:#000000;stroke-width:0.01;stroke-linecap:round;stroke-linejoin:round;stroke-opacity:1" />
        <path
           d="m 5.872037,1.220735 0,-0.133674 0.06193,0 0,0.0676 0.053644,0 0,-0.058659 0.060404,0 0,0.058659 0.05299,0 0,-0.068036 0.062149,0 0,0.13411 -0.291117,0"
           id="path3211"
           style="fill:#000000;fill-opacity:1;stroke:#000000;stroke-width:0.01;stroke-linecap:round;stroke-linejoin:round;stroke-opacity:1" />
        <path
           d="m 554.6875,75.96875 -11.8125,4.75 c -0.60192,-1.17756 -1.50346,-2.07262 -2.6875,-2.6875 -1.18413,-0.61497 -2.41832,-0.90625 -3.6875,-0.90625 -2.47284,0 -4.40456,0.78382 -5.84375,2.40625 -1.43919,1.62234 -2.1875,3.85626 -2.1875,6.65625 l 0,6.90625 26.21875,0 0,-5.9375 -11.9375,0 0,-0.09375 11.9375,-4.8125 0,-6.28125 z M 537,83.21875 c 1.79253,0 2.72896,1.30761 2.78125,3.9375 l -6.25,0 c 0.0392,-1.41309 0.35165,-2.42285 0.875,-3.03125 0.52335,-0.6084 1.37695,-0.90625 2.59375,-0.90625 z"
           transform="scale(0.01111111,0.01111111)"
           id="path3213"
           style="fill:#000000;fill-opacity:1;stroke:#000000;stroke-width:0.89999992;stroke-linecap:round;stroke-linejoin:round;stroke-opacity:1" />
      </g>
      <g
         id="g4047">
        <path
           d="m 8.803803,1.824744 0,-0.133674 0.06193,0 0,0.0676 0.053644,0 0,-0.058659 0.060404,0 0,0.058659 0.05299,0 0,-0.068036 0.062149,0 0,0.13411 -0.291117,0"
           id="path3217"
           style="fill:#000000;fill-opacity:1;stroke:#000000;stroke-width:0.01;stroke-linecap:round;stroke-linejoin:round;stroke-opacity:1" />
        <path
           d="m 8.803803,1.659451 0,-0.07327 C 8.849451,1.567427 8.875619,1.557178 8.882306,1.555434 l 0,-8.72e-4 C 8.880271,1.554271 8.872857,1.551509 8.860064,1.546275 l -0.056261,-0.022243 0,-0.073269 0.138907,0.0676 0.15221,-0.07327 0,0.07327 C 9.040113,1.541768 9.010601,1.55398 9.006385,1.554998 l 0,8.72e-4 c 0.0093,0.00247 0.018536,0.00574 0.027695,0.00981 l 0.06084,0.026822 0,0.072179 -0.151337,-0.071743 -0.13978,0.06651"
           id="path3219"
           style="fill:#000000;fill-opacity:1;stroke:#000000;stroke-width:0.01;stroke-linecap:round;stroke-linejoin:round;stroke-opacity:1" />
        <path
           d="m 8.803803,1.431137 0,-0.157661 0.06651,0 0,0.045575 0.224607,0 0,0.066946 -0.224607,0 0,0.04514 -0.06651,0"
           id="path3221"
           style="fill:#000000;fill-opacity:1;stroke:#000000;stroke-width:0.01;stroke-linecap:round;stroke-linejoin:round;stroke-opacity:1" />
        <path
           d="m 818.53125,93.78125 -11.8125,4.75 c -0.60192,-1.17747 -1.47221,-2.07262 -2.65625,-2.6875 -1.18413,-0.61497 -2.41841,-0.90625 -3.6875,-0.90625 -2.47293,0 -4.43572,0.81507 -5.875,2.4375 -1.43919,1.62234 -2.15625,3.82501 -2.15625,6.625 l 0,6.9375 26.1875,0 0,-5.96875 -11.90625,0 0,-0.0937 11.90625,-4.8125 0,-6.28125 z m -17.65625,7.25 c 1.79253,0 2.69771,1.30761 2.75,3.9375 l -6.21875,0 c 0.0392,-1.41309 0.3204,-2.42285 0.84375,-3.03125 0.52335,-0.6084 1.4082,-0.90625 2.625,-0.90625 z"
           transform="scale(0.01111111,0.01111111)"
           id="path3223"
           style="fill:#000000;fill-opacity:1;stroke:#000000;stroke-width:0.89999992;stroke-linecap:round;stroke-linejoin:round;stroke-opacity:1" />
        <path
           d="m 8.803803,1.006564 0,-0.067818 0.204981,0 c 0.00959,0 0.017191,-0.002544 0.022788,-0.007632 0.0056,-0.005089 0.0084,-0.011921 0.0084,-0.020498 0,-0.008868 -0.00298,-0.015883 -0.00894,-0.021044 C 9.025066,0.884411 9.016853,0.881831 9.006385,0.881831 l -0.202582,0 0,-0.067382 0.191025,0 c 0.026022,0 0.046884,0.003416 0.062585,0.010249 0.0157,0.006833 0.027221,0.0169 0.034563,0.030202 0.00734,0.013302 0.011012,0.031874 0.011012,0.055716 0,0.035181 -0.00901,0.059967 -0.02704,0.07436 C 9.057921,0.999368 9.027465,1.006564 8.984579,1.006564 l -0.180776,0"
           id="path3227"
           style="fill:#000000;fill-opacity:1;stroke:#000000;stroke-width:0.01;stroke-linecap:round;stroke-linejoin:round;stroke-opacity:1" />
        <path
           d="m 805.25,50.59375 c -4.21308,0 -7.4335,0.99813 -9.625,3 -2.19159,2.00178 -3.28125,4.93456 -3.28125,8.78125 l 0,5.5625 26.1875,0 0,-5.84375 c 0,-2.14578 -0.43581,-4.10209 -1.3125,-5.875 -0.8766,-1.77282 -2.28737,-3.1685 -4.25,-4.15625 -1.96254,-0.98784 -4.52627,-1.46875 -7.71875,-1.46875 z m 0.25,6.4375 c 2.56437,0 4.41255,0.37917 5.53125,1.125 1.1187,0.74574 1.74929,2.00692 1.90625,3.8125 l -15.03125,0 c 0.0393,-0.75888 0.11923,-1.38432 0.25,-1.875 0.13086,-0.49059 0.49334,-0.98313 1.0625,-1.5 0.56916,-0.51678 1.38423,-0.89453 2.4375,-1.15625 1.05327,-0.26163 2.32599,-0.40625 3.84375,-0.40625 z"
           transform="scale(0.01111111,0.01111111)"
           id="path3229"
           style="fill:#000000;fill-opacity:1;stroke:#000000;stroke-width:0.89999992;stroke-linecap:round;stroke-linejoin:round;stroke-opacity:1" />
        <path
           d="m 8.803803,0.517662 0,-0.133673 0.06193,0 0,0.0676 0.053644,0 0,-0.05866 0.060404,0 0,0.05866 0.05299,0 0,-0.068037 0.062149,0 0,0.13411 -0.291117,0"
           id="path3233"
           style="fill:#000000;fill-opacity:1;stroke:#000000;stroke-width:0.01;stroke-linecap:round;stroke-linejoin:round;stroke-opacity:1" />
      </g>
      <g
         id="g4056">
        <path
           d="m 11.736005,1.871631 0,-0.066074 0.136945,0 0,-0.00109 -0.136945,-0.062367 0,-0.069344 0.148721,0.0676 0.142396,-0.064765 0,0.072615 -0.121026,0.056261 0,0.00109 0.121026,0 0,0.066074 -0.291117,0"
           id="path3235"
           style="fill:#000000;fill-opacity:1;stroke:#000000;stroke-width:0.01;stroke-linecap:round;stroke-linejoin:round;stroke-opacity:1" />
        <path
           d="m 11.736005,1.639828 0,-0.066728 0.16791,-0.083955 -0.0314,0.0024 -0.136509,0 0,-0.066074 0.291117,0 0,0.067818 -0.165293,0.082211 0.0362,-0.00174 0.129094,0 0,0.066074 -0.291117,0"
           id="path3237"
           style="fill:#000000;fill-opacity:1;stroke:#000000;stroke-width:0.01;stroke-linecap:round;stroke-linejoin:round;stroke-opacity:1" />
        <path
           d="m 11.736005,1.360487 0,-0.066074 0.291117,0 0,0.066074 -0.291117,0"
           id="path3239"
           style="fill:#000000;fill-opacity:1;stroke:#000000;stroke-width:0.01;stroke-linecap:round;stroke-linejoin:round;stroke-opacity:1" />
        <path
           d="m 11.736005,1.229866 0,-0.133674 0.06237,0 0,0.0676 0.05321,0 0,-0.059532 0.0604,0 0,0.059532 0.115138,0 0,0.066074 -0.291117,0"
           id="path3241"
           style="fill:#000000;fill-opacity:1;stroke:#000000;stroke-width:0.01;stroke-linecap:round;stroke-linejoin:round;stroke-opacity:1" />
        <path
           d="m 11.736005,1.053015 0,-0.133674 0.06193,0 0,0.0676 0.05364,0 0,-0.058659 0.0604,0 0,0.058659 0.05299,0 0,-0.068036 0.06215,0 0,0.13411 -0.291117,0"
           id="path3243"
           style="fill:#000000;fill-opacity:1;stroke:#000000;stroke-width:0.01;stroke-linecap:round;stroke-linejoin:round;stroke-opacity:1" />
      </g>
    </g>
  </g>
</svg>
